REM GENRE Other
REM DATE 2012
REM DISCID 94126F0A
REM COMMENT "ExactAudioCopy v1.0b3"
PERFORMER "Cradle Of Filth"
TITLE "Midnight In The Labyrinth (CD1)"
FILE "Cradle Of Filth - 2012 - Midnight In The Labyrinth (CD1).flac" WAVE
  TRACK 01 AUDIO
    TITLE "A Gothic Romance (Red Roses For The Devils Whore)"
    PERFORMER "Cradle Of Filth"
    ISRC GASQH1200281
    INDEX 01 00:00:00
  TRACK 02 AUDIO
    TITLE "The Forest Whispers My Name"
    PERFORMER "Cradle Of Filth"
    ISRC GASQH1200282
    INDEX 01 08:39:05
  TRACK 03 AUDIO
    TITLE "The Twisted Nails Of Faith"
    PERFORMER "Cradle Of Filth"
    ISRC GASQH1200283
    INDEX 01 14:21:36
  TRACK 04 AUDIO
    TITLE "The Rape And Ruin Of Angels (Hosannas In Extremis)"
    PERFORMER "Cradle Of Filth"
    ISRC GASQH1200284
    INDEX 01 21:27:09
  TRACK 05 AUDIO
    TITLE "Funeral In Carpathia"
    PERFORMER "Cradle Of Filth"
    ISRC GASQH1200285
    INDEX 01 29:46:73
  TRACK 06 AUDIO
    TITLE "Summer Dying Fast"
    PERFORMER "Cradle Of Filth"
    ISRC GASQH1200286
    INDEX 01 38:38:51
  TRACK 07 AUDIO
    TITLE "Thirteen Autumns And A Widow"
    PERFORMER "Cradle Of Filth"
    ISRC GASQH1200287
    INDEX 01 43:59:68
  TRACK 08 AUDIO
    TITLE "Dusk And Her Embrace"
    PERFORMER "Cradle Of Filth"
    ISRC GASQH1200288
    INDEX 01 51:14:43
  TRACK 09 AUDIO
    TITLE "Cruelty Brought Thee Orchids"
    PERFORMER "Cradle Of Filth"
    ISRC GASQH1200289
    INDEX 01 57:46:09
  TRACK 10 AUDIO
    TITLE "Goetia (Invoking The Unclean)"
    PERFORMER "Cradle Of Filth"
    ISRC GASQH1200289
    INDEX 01 65:33:03
